<?xml version="1.0" encoding="UTF-8"?>
<!DOCTYPE svg PUBLIC "-//W3C//DTD SVG 1.1//EN" "http://www.w3.org/Graphics/SVG/1.1/DTD/svg11.dtd">
<!-- Creator: CorelDRAW (Versión OEM) -->
<svg xmlns="http://www.w3.org/2000/svg" xml:space="preserve" width="273.1mm" height="56.7057mm" version="1.1" style="shape-rendering:geometricPrecision; text-rendering:geometricPrecision; image-rendering:optimizeQuality; fill-rule:evenodd; clip-rule:evenodd"
viewBox="0 0 28534.12 5924.75"
 xmlns:xlink="http://www.w3.org/1999/xlink"
 xmlns:xodm="http://www.corel.com/coreldraw/odm/2003">
 <defs>
  <style type="text/css">
   <![CDATA[
    .fil4 {fill:#688071}
    .fil1 {fill:#373F7D;fill-rule:nonzero}
    .fil0 {fill:#688071;fill-rule:nonzero}
    .fil2 {fill:#688071;fill-rule:nonzero}
    .fil3 {fill:url(#id0)}
    .fil5 {fill:url(#id1)}
   ]]>
  </style>
  <radialGradient id="id0" gradientUnits="userSpaceOnUse" gradientTransform="matrix(0.885903 1.13329 -0.838482 1.24702 3326 -3744)" cx="2513.68" cy="3625.08" r="818.57" fx="2513.68" fy="3625.08">
   <stop offset="0" style="stop-opacity:1; stop-color:#9B9EBA"/>
   <stop offset="0.360784" style="stop-opacity:1; stop-color:#696E9B"/>
   <stop offset="1" style="stop-opacity:1; stop-color:#373F7D"/>
  </radialGradient>
  <radialGradient id="id1" gradientUnits="userSpaceOnUse" gradientTransform="matrix(1.05711 0.384174 -0.300132 1.35312 -40 -5378)" cx="12021.15" cy="2152.68" r="8361.54" fx="12021.15" fy="2152.68">
   <stop offset="0" style="stop-opacity:1; stop-color:#9B9EBA"/>
   <stop offset="0.0117647" style="stop-opacity:1; stop-color:#696E9B"/>
   <stop offset="1" style="stop-opacity:1; stop-color:#373F7D"/>
  </radialGradient>
 </defs>
 <g id="Capa_x0020_1">
  <metadata id="CorelCorpID_0Corel-Layer"/>
  <g id="_1990238304464">
   <path class="fil0" d="M20893.05 2329.82l-1.68 1857.19c-0.66,705.98 368.76,1120.67 1130.79,1120.67 437.06,0 661.36,-196.12 661.66,-504.28l0.24 -268.98 -28.01 0c-117.73,72.85 -302.66,106.47 -543.62,106.47 -302.55,0 -476.13,-151.3 -475.74,-543.5l1.09 -1182.29 599.56 0c308.16,0 448.44,-201.71 448.56,-358.6l0.3 -308.19 -1047.8 0 0.66 -725.34 -173.7 0c-117.67,0 -252.25,89.63 -353.22,207.3 -162.66,190.51 -218.81,302.63 -219.08,599.56zm4492.36 1913.24l0.66 -694.81c0.96,-1042.21 -603.89,-1355.98 -1276.26,-1355.98 -795.64,0 -1098.6,403.43 -1098.9,739.64l-0.24 240.93 28.01 0c112.18,-140.07 414.96,-347.4 958.47,-347.4 448.26,0 649.86,128.87 649.47,554.71l-0.03 39.24 -263.36 0c-1109.45,0 -1502.04,409.05 -1502.55,946.93 -0.51,554.71 492.2,958.15 1209.41,958.15l151.27 0c672.41,0 1143.49,-442.65 1144.06,-1081.4zm-734.02 5.59c-0.27,308.19 -157.31,465.07 -482.31,465.07 -330.59,0 -520.96,-140.07 -520.75,-375.42 0.24,-246.55 162.87,-381.04 734.39,-381.04l268.95 0 -0.27 291.38zm3882.72 694.81c-263.3,-56.03 -397.66,-179.32 -722.21,-655.6l-330.14 -481.86c179.5,-201.71 336.57,-386.62 460,-549.12 241.23,-313.78 353.5,-549.1 353.62,-683.58 0.18,-168.12 -89.33,-319.39 -307.86,-319.39l-285.79 0c-50.72,302.57 -129.3,459.46 -611.67,1002.97l-307.76 -437.04c-335.75,-476.27 -520.57,-571.55 -666.26,-571.55l-448.26 0c11.02,229.74 201.26,498.72 537,986.19l318.96 459.46 -246.79 263.33c-375.8,403.44 -583.41,700.43 -583.74,1059.03 -0.15,151.27 134.25,268.95 307.92,268.95l341.79 0c28.2,-184.9 67.56,-336.18 168.59,-509.88 84.17,-145.68 207.61,-313.8 398.33,-532.31l330.11 498.68c262.97,397.82 481.35,577.13 800.71,577.13 330.59,0 493.24,-162.5 493.45,-375.42z"/>
   <g>
    <path class="fil1" d="M22373.99 2164.13c-25.77,-206.22 -124.1,-487.87 -183.31,-593.86 -18.11,-31.5 -53.44,-60.14 -105.97,-60.14l-53.44 0c-100.26,111.72 -222.46,496.48 -222.46,591.01 0,40.08 17.18,62.99 60.14,62.99l50.59 0c9.55,-55.37 21.02,-111.69 34.39,-167.1l260.66 0c6.67,27.72 12.39,61.13 18.13,104.11 4.77,31.49 33.42,62.99 87.83,62.99l53.45 0zm-189.02 -271.16l-202.4 0c21.94,-90.68 62.99,-194.72 101.18,-262.52 34.39,61.1 79.27,170.88 101.22,262.52zm392.38 271.16l0 -584.28c0,-42.01 -36.28,-69.72 -69.69,-69.72l-59.21 0 0 567.13c0,57.29 41.07,86.87 79.24,86.87l49.66 0z"/>
    <path class="fil2" d="M23368.85 2041.93c-46.79,10.51 -95.49,14.31 -143.2,14.31l-42 0c-101.22,0 -138.45,-21.94 -138.45,-135.57l0 -38.19 172.8 0c52.51,0 79.27,-17.18 79.27,-60.15l0 -46.78 -252.07 0c0,-41.07 2.85,-105.04 9.55,-152.77l224.36 0c60.17,0 87.86,-22.91 87.86,-68.73l0 -43.92 -341.79 0c-53.47,0 -89.78,20.05 -100.26,98.33 -7.65,52.52 -12.42,122.21 -12.42,184.28l0 121.27c0,167.07 84.01,254.9 243.48,254.9l69.69 0c114.55,0 141.31,-28.65 142.24,-81.16l0.96 -45.82zm659.73 88.79c-41.04,-31.5 -97.38,-84.01 -148.96,-159.44l-86.87 -126.96c113.62,-128.9 185.24,-222.46 185.24,-269.24 0,-38.23 -17.21,-65.91 -58.25,-65.91l-49.67 0c-14.32,57.29 -41.04,104.06 -149.86,230.09l-79.24 -118.4c-66.87,-99.27 -103.15,-110.73 -132.71,-110.73l-89.75 0c11.44,43.92 46.75,104.06 116.47,201.44l77.35 107.91 -62.06 66.82c-65.91,70.65 -94.53,120.31 -108.84,155.63 -10.51,24.83 -14.32,44.89 -14.32,71.61 0,26.72 20.03,50.59 53.47,50.59l63.95 0c17.18,-62.99 47.75,-130.79 139.39,-239.64l82.09 120.32c64.91,95.44 108.84,126.98 169.01,126.98 52.52,0 73.5,-17.21 93.56,-41.07zm537.53 -421.99c0,-130.79 -90.71,-203.36 -217.69,-203.36l-73.5 0c-46.81,0 -133.67,17.2 -169.95,30.56l0 534.65c0,69.69 42.94,93.56 79.24,93.56l51.55 0 0 -253.97c26.73,14.32 63.96,21.95 109.78,21.95 125.09,0 220.57,-84.94 220.57,-223.39zm-134.64 11.47c0,62.99 -36.28,101.19 -103.11,101.19 -33.41,0 -69.69,-4.77 -92.6,-11.44l0 -185.24c15.25,-2.85 38.17,-8.62 54.41,-8.62l42 0c68.76,0 99.3,29.61 99.3,104.11zm662.59 321.73c-46.78,10.51 -95.48,14.31 -143.19,14.31l-42.03 0c-101.19,0 -138.42,-21.94 -138.42,-135.57l0 -38.19 172.79 0c52.52,0 79.27,-17.18 79.27,-60.15l0 -46.78 -252.06 0c0,-41.07 2.85,-105.04 9.54,-152.77l224.37 0c60.14,0 87.85,-22.91 87.85,-68.73l0 -43.92 -341.81 0c-53.47,0 -89.75,20.05 -100.26,98.33 -7.63,52.52 -12.4,122.21 -12.4,184.28l0 121.27c0,167.07 84.01,254.9 243.49,254.9l69.69 0c114.55,0 141.3,-28.65 142.23,-81.16l0.96 -45.82zm577.62 105.96c-7.63,-11.44 -23.87,-29.57 -40.09,-67.77l-52.51 -122.2c-16.25,-38.2 -45.85,-77.35 -81.16,-91.64 76.39,-11.47 134.6,-85.01 134.6,-173.8 0,-109.77 -84.97,-188.08 -214.81,-188.08l-72.57 0c-48.7,0 -140.34,13.38 -168.03,23.9l0 548.01c0,52.52 30.54,87.83 88.79,87.83l42.01 0 0 -262.55c13.36,0 36.3,3.81 64.91,8.59 34.37,5.74 62.06,10.51 91.67,82.12l48.7 118.37c17.18,42 53.47,58.25 95.49,58.25 36.27,0 47.71,-4.77 62.99,-21.02zm-269.25 -530.8c57.3,0 97.41,17.18 97.41,96.42 0,58.22 -44.89,88.79 -98.34,88.79 -35.34,0 -64.91,0 -93.58,-5.74l0 -172.77c14.35,-3.84 45.82,-6.7 58.25,-6.7l36.27 0zm811.56 -65.91l0 -41.04 -439.19 0c-53.48,0 -79.24,40.11 -79.24,71.61l0 42.96 188.08 0 0 451.59c0,58.25 33.42,87.83 79.24,87.83l52.51 0 0 -539.42 120.32 0c42.93,0 78.28,-42 78.28,-73.53z"/>
    <g>
     <g>
      <path class="fil3" d="M3160 5171.78c-40.65,-48.07 -82.19,-100.76 -124.67,-158.48 -144.04,-195.59 -298.58,-448.5 -466.31,-775.16l-976.94 -1905.65 -0.11 0.05c-69.72,-139.8 -132.02,-258.07 -187.69,-356.35 -42.56,-75.1 -127.88,-209.28 -173.56,-282.88l44.81 75.05c76.41,129.15 172.16,297.51 278.84,510.19l1064.76 2063.5c218.98,423.74 418.87,722.8 602.24,940.04l-0.96 3.09c36.69,41.49 72.67,80.2 108.03,116.8 61.07,64.37 120.2,120.04 177.52,168.66l0.37 0.09c818.93,703.06 1238.55,-7.69 1236.45,-1325.66 -59,172.95 -121.82,314.94 -189.07,420.76l0.93 198.89c16.22,208.56 -22.43,391.15 -103.05,528.85 -63.36,108.19 -152.57,188.65 -261.53,232.53 -108.6,43.72 -236.34,50.83 -377.1,12.46 -198.89,-54.26 -424.24,-199.8 -658.15,-462.2l5.19 -4.6zm1340.58 -431.12c-185.83,231.71 -404.42,195.75 -667.28,-208.95 -84.46,-153.19 -166.91,-310.92 -246.57,-471.56 -114.59,-248.98 -240.04,-553.35 -358.07,-790.41l-1005.07 -2018.64c-70.71,-142.02 -145.63,-271.26 -224.47,-388.24 -81.77,-88.1 -167.95,-165.66 -259.22,-232.43 -139.95,-102.39 -292.91,-179.89 -461.59,-231.77 -167.61,-51.59 -349.93,-77.65 -549.66,-77.65l-94.94 0 -0.18 53.2 -136.59 76.99 -136.06 -76.99 0.54 -154.6 67.98 -38.31 0.3 0 68.31 -38.52 68.01 38.52 0.3 0 67.74 38.31 -0.18 49.51 94.94 0c207.61,0 396.47,27.11 569.39,80.78 172.08,53.38 329,133.26 473.55,239 14.18,10.36 28.25,20.99 42.16,31.86 -322.97,-368.69 -510.24,-659.62 -1274.85,-616.5 -589.42,33.24 -526.1,830.13 -539.07,1477.3 287.44,-591.28 597.56,-747.14 841.33,-394.88 105.23,152.02 203.05,306.23 292.96,462.64l0 0.01 1.53 0.91 3.06 1.86 1.53 0.94 1.53 0.95 1.54 0.96 1.53 0.97 1.53 0.98 1.51 0.99 1.41 0.92 0.11 0.07 1.53 1.01 1.29 0.86 0.24 0.17 1.51 1.03 1.53 1.03 0.59 0.4 0.93 0.66 1.53 1.06 1.4 0.98 0.11 0.09 1.51 1.08 1.51 1.09 0.7 0.5 0.83 0.61 1.51 1.11 1.5 1.11 0 0.01 1.51 1.14 1.51 1.14 0.81 0.61 0.7 0.54 1.5 1.16 1.51 1.17 0.11 0.08 1.39 1.1 1.5 1.19 1.51 1.2 1.5 1.21 1.5 1.22 0.23 0.18 1.27 1.04 1.5 1.24 1.03 0.86 0.46 0.4 1.5 1.26 1.5 1.26 0.34 0.29 1.15 0.99 3 2.59 1.49 1.32 1.49 1.32 1.49 1.34 1.49 1.34 5.96 5.47 1.48 1.39 2.97 2.82 1.48 1.42 1.48 1.43 1.48 1.45 2.96 2.92 1.47 1.47 5.89 6.01 1.47 1.53 1.47 1.54 1.46 1.54 0 -0.43 1.54 2.06 0.16 0.17 1.47 1.58 1.63 1.76 0.62 0.67 1 1.11 1.63 1.78 1.08 1.19 0.54 0.61 1.62 1.81 1.54 1.72 0.08 0.1 1.62 1.83 1.62 1.85 0.37 0.42 1.24 1.44 1.61 1.87 0.83 0.96 0.79 0.93 1.6 1.89 1.27 1.51 0.33 0.4 1.61 1.93 1.6 1.93 0.11 0.15 1.48 1.81 1.6 1.96 0.56 0.7 1.03 1.27 1.6 1.99 1.01 1.27 0.57 0.73 1.59 2.02 1.46 1.86 0.13 0.17 1.59 2.04 1.59 2.06 0.31 0.42 2.84 3.73 0.76 1.01 0.81 1.08 4.72 6.35 1.57 2.15 0.08 0.1 1.48 2.05 1.57 2.17 0.51 0.72 2.61 3.67 0.95 1.35 0.61 0.86 1.56 2.23 1.39 2.01 0.17 0.23 1.55 2.26 1.56 2.26 0.27 0.41 2.81 4.16 0.71 1.07 0.84 1.24 1.54 2.32 1.14 1.72 0.4 0.6 1.54 2.35 1.54 2.35 0.03 0.06 1.49 2.31 1.54 2.38 0.46 0.73 1.06 1.66 1.53 2.41 0.89 1.42 2.15 3.44 1.32 2.13 0.2 0.31 1.5 2.47 1.51 2.48 0.23 0.38 1.27 2.11 1.5 2.5 0.66 1.1 0.85 1.42 1.49 2.53 1.08 1.83 0.42 0.72 1.49 2.55 1.49 2.57 -1.27 0.74c5.02,7.66 10.12,15.56 15.31,23.67 28.01,43.78 56.54,91.01 85.67,141.81 27.2,47.48 58.57,104.8 94.27,172.23 36.66,69.22 71.95,137.89 106,206.13l30.56 61.26 0.72 -0.37 945.71 1844.4c164.36,320.08 315,567.74 454.75,759.03 44.23,60.6 87.46,115.63 129.75,165.63l1.23 -1.11c226.57,254.17 442.77,394.61 632.14,446.24 128.84,35.14 245.04,28.92 343.14,-10.56 97.7,-39.34 177.96,-111.99 235.28,-209.88 120.34,-205.53 96.21,-402.35 95.15,-625.87z"/>
      <g>
       <path class="fil4" d="M4740.73 4250.99l-1.11 -3537.13c-0.13,-373.65 -343.3,-670.82 -640.47,-670.82l-517.98 0 7.84 3154.2 0 -0.05c-12.01,103.23 -49.48,169.04 -90.2,192.89l94.4 229.16c31.95,72 128.96,303.98 151.49,355.93l151.33 348.57 6.49 -1886.37 -112.28 -63.54 0.54 -154.6 67.98 -38.31 0.3 0 68.28 -38.5 68.04 38.5 0.3 0 67.74 38.33 -0.53 154.76 -107.38 60.51 -7.36 2148.95 -50.36 -114.19c-10.11,-22.94 -26.15,-60.36 -45.67,-106.18 -26.81,-63.02 -37.92,-89.3 -48.91,-115.48 -66.93,-158.93 -134.01,-318.67 -207.24,-474.89l-157.55 -369.15c-77.29,-6.46 -177,-93.62 -287.71,-290.44l77.94 156.59c99.75,200.27 273.24,609.95 376.81,828l3.75 7.53 3.75 7.48 3.76 7.5 3.78 7.48 3.78 7.5 3.75 7.48 3.78 7.48 3.78 7.47 3.78 7.48 0.03 0 3.78 7.47 3.78 7.45 3.81 7.45 3.78 7.44 3.81 7.45 3.81 7.45 3.81 7.42 3.81 7.44 3.81 7.42 3.84 7.42 3.81 7.42 3.84 7.42 3.81 7.39 0 0.03 3.84 7.39 3.84 7.39 3.84 7.38 3.87 7.39 3.84 7.39 3.84 7.36 0 0.03 0.3 0.57 3.57 6.78 3.87 7.37 3.84 7.36 0.03 0 3.84 7.32 3.88 7.36 3.9 7.36 3.88 7.32 3.88 7.32 3.9 7.3 0 0.03 3.88 7.29 3.91 7.32 7.8 14.6 3.9 7.29 3.91 7.27 3.91 7.29 3.93 7.26 3.91 7.27 3.93 7.26 3.91 7.24 3.93 7.26 3.94 7.24 3.93 7.24 3.94 7.23 3.93 7.21 3.96 7.23 3.94 7.21 3.96 7.21 3.94 7.18 3.96 7.2 3.96 7.18c262.86,404.7 481.44,440.67 667.28,208.95l-9.97 -3863.27c-0.3,-76.51 -16.57,-149.6 -44.65,-216.79 -29.94,-71.64 -73.39,-136.47 -125.18,-191.42 -25.28,-26.81 -52.88,-51.52 -82.09,-73.68 -29.88,-22.67 -60.57,-42.13 -91.32,-57.89l-32.66 -16.75 -83.23 48.67 -0.24 0 -58.17 34.05 -116.89 -68.1 -0.56 -136.7 57.88 -33.87 0.27 0 58.17 -34.05 58.46 34.05 0.24 0 58.2 33.87 0.26 62.93 41.53 17.96c40.38,17.5 79.96,39.9 117.62,66.6 37.62,26.6 73.02,57.29 105.18,91.4 56.15,59.53 103.17,130.01 135.5,208.11 29.58,71.4 46.69,149.47 47.05,231.63 5.26,1262.03 11.78,2529.05 17.72,3788.45l3.16 -4.98 3.06 -4.9 0.08 -0.11 0 -0.03 3.01 -4.9 0.11 -0.18 2.98 -4.92 0.15 -0.21 0 -0.03 2.95 -4.87 0.18 -0.32 3.12 -5.26 3.12 -5.29 3.09 -5.35 3.09 -5.4 2.76 -4.84 0.33 -0.63 2.7 -4.84 0.4 -0.69 2.64 -4.77 0.42 -0.77 2.64 -4.77 0.45 -0.85 2.58 -4.74 0.48 -0.93 3.06 -5.7 3.06 -5.77 3.04 -5.82 3.03 -5.86 3.03 -5.91 2.34 -4.62 0.69 -1.36 1.41 -2.82 0.91 -1.77 0.72 -1.44 2.25 -4.53 0.75 -1.54 0.03 0 2.19 -4.5 0.8 -1.62 2.16 -4.47 0.85 -1.71 3 -6.22 2.1 -4.41 0.88 -1.87 2.07 -4.35 0.93 -1.95 0 -0.03 2.01 -4.33 0.96 -2.04 0.43 -0.93 2.55 -5.5 1.95 -4.23 1.01 -2.23 1.92 -4.2 1.02 -2.32 1.89 -4.17 1.09 -2.4 2.94 -6.63 1.84 -4.15 1.11 -2.52 1.77 -4.02 81.74 -212.32zm-74.7 196.04l1.65 -3.88 1.26 -2.97 1.62 -3.84 1.29 -3.09 1.57 -3.75 1.35 -3.19 1.54 -3.72 1.35 -3.3 2.79 -6.76 0.13 -0.3 2.88 -7.08 1.44 -3.57 1.44 -3.57 0 -0.03 1.38 -3.48 1.49 -3.72 1.36 -3.43 1.53 -3.81 1.33 -3.36 1.53 -3.93 2.85 -7.33 2.85 -7.41 2.85 -7.42 1.2 -3.12 1.65 -4.36 1.15 -3.06 1.68 -4.47 2.82 -7.6 1.08 -2.92 1.74 -4.71 2.82 -7.66 1.02 -2.76 1.8 -4.96 0.99 -2.7 1.83 -5.08 0.93 -2.61 1.86 -5.19 2.8 -7.84 2.79 -7.9 0.84 -2.4 1.95 -5.55 0.81 -2.32 1.95 -5.67 0.77 -2.25 2.02 -5.8 0.72 -2.16 -74.7 196.04zm-4666.03 -2965.48l5.8 3614c0.84,509.52 366.38,764.26 706.03,764.26l458.56 0 -0.32 -209.79 -317.71 0c-173.11,0 -353.62,-70.92 -483.48,-212.74 -53.9,-58.82 -94.62,-123.98 -123.86,-193.52 -31.41,-74.74 -49.9,-155.63 -57.53,-240.12l-3.21 -35.4 -39.16 -22.79 0.06 -0.13 -58.46 -34.05 -0.54 -136.7 57.86 -33.9 0.27 0 58.19 -34.05 58.43 34.05 0.27 0 58.2 33.9 0.56 136.86 -90.83 53.17 4.36 43.72c8.01,80.78 26.81,153.35 53.92,217.69 29.55,70.12 68.73,130.2 114.64,180.28 58.79,64.16 128.85,112.78 203.91,145.69 79.22,34.76 163.73,52.15 246.22,52.15l317.79 0 -5.67 -2690.41c15.85,-227.14 18.01,-806.78 363.86,-687.12 -21.71,-42.73 -42.73,-83.57 -63.18,-122.54 -75.19,-139.81 -153.37,-276.61 -234.26,-410.73 0.01,1.38 -20.23,-28.26 -52.05,-58.35l-2.11 -1.96 -0.56 -0.52 -1.56 -1.42 -1.9 -1.73 -0.22 -0.19 -2.12 -1.9 -1.13 -1 -0.99 -0.87 -2.12 -1.85 -0.36 -0.31 -1.78 -1.51 -1.7 -1.45 -0.43 -0.36 -2.13 -1.78 -0.92 -0.77 -1.21 -0.99 -2.13 -1.73 -0.14 -0.11 -2 -1.6 -1.49 -1.18 -0.65 -0.51 -2.13 -1.66 -0.71 -0.55 -1.43 -1.09 -2.07 -1.58 -0.07 -0.05 -2.13 -1.59 -1.3 -0.95 -0.86 -0.63 -2.14 -1.56 -0.5 -0.36 -1.64 -1.17 -1.86 -1.31 -0.28 -0.2 -2.15 -1.48 -1.08 -0.74 -1.07 -0.72 -2.15 -1.44 -0.29 -0.19 -1.86 -1.22 -1.65 -1.08 -0.5 -0.32 -2.15 -1.37 -0.86 -0.54 -1.3 -0.8 -2.15 -1.33 -0.07 -0.04 -2.08 -1.26 -1.44 -0.86 -0.71 -0.42 -2.16 -1.25 -0.65 -0.38 -0.18 -0.1 -3.34 -1.89 -0.14 -0.08 -2.16 -1.19 -1.22 -0.67 -0.93 -0.5 -2.16 -1.14 -0.43 -0.23 -1.73 -0.9 -1.8 -0.92 -0.36 -0.18 -3.18 -1.58 -1.15 -0.56 -2.16 -1.03 -0.21 -0.1 -0.65 -0.3 -2.88 -1.33 -0.57 -0.26 -2.16 -0.97 -0.79 -0.34 -3.53 -1.53c-58.67,-24.76 -117.8,-24.97 -173.7,-3.09 -57.26,22.42 -111.63,67.94 -159.27,134.02 -98.33,136.35 -167.27,358.29 -175.13,644.82l-9.29 1068.35 50.5 -0.53 41.43 70.02 41.43 70.03 -39.94 70.89 -39.92 70.89 -81.36 0.87 -81.36 0.87 -41.43 -70.03 -41.43 -70.02 39.92 -70.9 39.93 -70.88 70.6 -0.76 9.3 -1069.94c8.11,-295.31 80.14,-525.41 182.97,-668 52.45,-72.74 113.18,-123.21 177.87,-148.54 66.05,-25.86 135.86,-25.63 205.05,3.57l0.64 0.27 0.63 0.26 1.26 0.54 0.64 0.28 0.63 0.27 0.13 0.05 0.5 0.23 0.64 0.27 0.63 0.28 0.64 0.28 0.63 0.28 0.64 0.29 0.24 0.1 0.39 0.18 0.64 0.29 0.63 0.29 0.64 0.29 0.63 0.29 0.63 0.29 0.37 0.17 0.27 0.13 0.63 0.3 0.64 0.3 0.63 0.3 0.63 0.3 0.64 0.3 0.48 0.24 0.15 0.06 0.64 0.31 0.63 0.31 1.89 0.94 0.61 0.3 0.02 0.01 1.26 0.64 0.63 0.32 0.64 0.32 0.63 0.32 0.63 0.32 0.09 0.05 0.53 0.28 0.03 0.02 1.23 0.64 0.63 0.33 0.63 0.33 0.64 0.33 0.21 0.11 0.42 0.22 0.63 0.34 0.63 0.34 0.63 0.33 0.64 0.34 0.63 0.36 0.33 0.18 0.29 0.17 0.63 0.34 0.63 0.36 0.63 0.36 0.63 0.36 0.64 0.36 0.45 0.26 0.18 0.09 0.63 0.37 1.25 0.72 0.63 0.37 0.63 0.37 0.57 0.33 0.05 0.03 0.63 0.37 0.63 0.38c-69.25,-120.51 -143.2,-239.65 -221.63,-357.53 -30.62,-45.58 -55.22,-81.82 -71.34,-105.12 -3.81,-5.5 -7.63,-10.9 -11.47,-16.15 -3.83,-5.26 -7.71,-10.39 -11.56,-15.37 -3.88,-5.02 -7.77,-9.92 -11.68,-14.66 -3.9,-4.77 -7.8,-9.42 -11.74,-13.93 -3.93,-4.5 -7.89,-8.92 -11.86,-13.19 -3.96,-4.26 -7.92,-8.43 -11.92,-12.43l0 -0.02c-3.99,-4 -7.98,-7.9 -12.01,-11.68 -4.02,-3.78 -8.08,-7.45 -12.1,-10.99 -4.05,-3.54 -8.11,-6.94 -12.19,-10.24 -4.05,-3.3 -8.17,-6.46 -12.26,-9.52 -4.11,-3.06 -8.19,-5.98 -12.34,-8.8 -4.11,-2.79 -8.25,-5.5 -12.4,-8.05 -4.14,-2.58 -8.32,-5.02 -12.49,-7.36 -4.18,-2.32 -8.35,-4.5 -12.55,-6.61 -4.18,-2.07 -8.41,-4.02 -12.61,-5.88 -4.24,-1.86 -8.47,-3.57 -12.71,-5.19 -4.23,-1.59 -8.49,-3.06 -12.76,-4.44 -4.26,-1.36 -8.53,-2.61 -12.8,-3.73l0 -0.03c-4.29,-1.11 -8.58,-2.1 -12.87,-3l0 -0.03c-4.33,-0.87 -8.62,-1.65 -12.95,-2.31 -4.33,-0.66 -8.65,-1.17 -13,-1.59 -4.36,-0.43 -8.68,-0.72 -13.04,-0.91 -4.35,-0.18 -8.73,-0.24 -13.09,-0.18 -4.38,0.06 -8.77,0.24 -13.14,0.51 -4.39,0.3 -8.8,0.72 -13.22,1.23 -4.38,0.51 -8.83,1.17 -13.24,1.92 -4.42,0.77 -8.86,1.65 -13.3,2.64 -4.42,0.98 -8.86,2.1 -13.3,3.3l0 0.03c-4.45,1.22 -8.92,2.55 -13.39,3.99l0 0.03c-4.44,1.44 -8.92,3 -13.39,4.71 -4.47,1.68 -8.94,3.48 -13.45,5.4 -4.5,1.92 -8.99,3.96 -13.49,6.12 -4.5,2.13 -9.01,4.42 -13.51,6.79 -4.5,2.37 -9.01,4.89 -13.54,7.5 -4.5,2.61 -9.04,5.32 -13.54,8.17 -4.53,2.82 -9.07,5.8 -13.6,8.86 -4.53,3.06 -9.07,6.25 -13.6,9.55 -4.53,3.3 -9.12,6.69 -13.66,10.21 -4.53,3.54 -9.1,7.18 -13.67,10.93 -4.57,3.75 -9.1,7.6 -13.66,11.59 -4.57,3.99 -9.13,8.08 -13.7,12.26 -4.57,4.2 -9.13,8.53 -13.72,12.93l0 0.03c-4.57,4.42 -9.13,8.94 -13.7,13.6 -4.59,4.65 -9.15,9.42 -13.75,14.29 -4.57,4.89 -9.13,9.87 -13.72,14.95 -4.57,5.11 -9.16,10.33 -13.73,15.64 -4.59,5.32 -9.18,10.75 -13.75,16.31 -4.59,5.53 -9.18,11.17 -13.75,16.94l0 0.02c-4.6,5.77 -9.16,11.63 -13.75,17.63 -4.57,5.98 -9.16,12.08 -13.75,18.29 -4.57,6.21 -9.16,12.52 -13.73,18.94 -4.57,6.43 -9.15,12.97 -13.72,19.63 -4.6,6.65 -9.16,13.39 -13.72,20.27 -4.57,6.84 -9.16,13.84 -13.73,20.93 -4.57,7.08 -9.12,14.26 -13.69,21.57 -4.57,7.29 -9.13,14.71 -13.7,22.24 -4.53,7.51 -9.09,15.14 -13.66,22.88 -4.53,7.72 -9.1,15.59 -13.63,23.54 -4.57,7.93 -9.1,16.01 -13.63,24.17 -4.53,8.17 -9.07,16.46 -13.6,24.84 -4.5,8.38 -9.06,16.87 -13.56,25.46 -4.53,8.62 -9.04,17.32 -13.55,26.12 -4.53,8.83 -9.04,17.75 -13.54,26.76 -4.5,9.04 -8.98,18.17 -13.48,27.42z"/>
      </g>
     </g>
     <path class="fil5" d="M16557.11 3699.54l-53.02 -29.4 -53.78 29.4 -0.24 0 -53.54 29.24 -1.5 129.11 -16.24 17.08c-87.26,91.5 -150.77,193.52 -193.43,303.69 -45.2,116.93 -66.96,243.36 -68.55,376.44 -2.02,169.95 35.27,328.01 106.53,469.43 73.33,145.39 182.53,273.72 321.91,379.93 136.92,104.37 303.24,187.27 493.27,243.63 184.93,54.92 392.69,84.67 618.21,84.67l191.6 0c52.48,0 103.68,-2.02 153.53,-5.88 51.07,-3.97 100.65,-9.82 148.59,-17.48l21.95 -3.54 117.73 65.28 107.55 -58.82 1.41 -118.1 -52.82 -29.28 -0.27 0 -53.06 -29.42 -53.78 29.42 -0.24 0 -53.47 29.28 -0.84 69.72 -52.64 8.05c-46.66,7.12 -93.32,12.43 -139.84,15.86 -47.4,3.51 -95.24,5.28 -143.37,5.28l-191.6 0c-218.5,0 -420.4,-28.56 -600.62,-81.37 -187.36,-54.76 -350.91,-135.87 -485.31,-238.25 -133.86,-101.97 -238.81,-225.35 -309.33,-365.16 -69.3,-137.28 -105.52,-289.93 -103.59,-453.24 1.5,-124.09 21.77,-243.01 63.81,-354.2 40.14,-106.13 100.07,-204.65 182.35,-293.26l33.96 -36.6 62.69 34.77 107.65 -58.92 1.41 -118.12 -52.82 -29.24 -0.27 0zm-8351.85 -1883.74l-53.75 -34.35 -52.13 34.35 -0.24 0 -51.89 34.17 3.33 137.85 107.52 68.64 49.75 -32.77 33.75 50.54c87.59,131.16 158.43,279.61 207.88,443.55 46.81,155.32 74.43,324.34 78.79,505.34 2.42,101.82 -4.72,194.66 -21.92,279.28 -17.51,86.29 -45.52,163.85 -84.38,233.27l-30.53 54.59 -57.96 -36.97 -52.21 34.39 -0.24 0 -51.89 34.17 3.33 137.85 107.52 68.7 104.22 -68.7 -3.94 -164.52 10.64 -17.95c22.45,-37.81 41.73,-78.55 57.88,-122.18 16.28,-43.99 29.22,-90.38 38.86,-139.38l55.37 -281.77 -71.46 -358.12c-23.3,-116.59 -56.69,-226.79 -98.88,-330.02 -43.75,-107.04 -96.59,-206.16 -157.1,-296.85l-12.28 -18.4 -4.33 -180.56 -53.51 -34.17 -0.24 0zm-2907.12 1520.92l-45.61 347.5 22.43 298.64c9.34,124.22 27.35,242.97 53.12,355.99 26.57,116.68 61.55,227.75 103.79,332.78l23.39 58.2 -41.76 26.48 -4.93 137.68 103.39 68.67 108.34 -68.67 4.92 -137.85 -51.47 -34.17 -0.21 0 -51.85 -34.42 -30.12 19.07 -26.39 -66.92c-55.88,-141.55 -98.28,-294.54 -124.72,-458 -25.38,-156.73 -36.07,-322.06 -29.88,-494.8 12.22,-340.74 68.16,-650.95 161.09,-925.47 96.75,-285.73 233.49,-532.48 402.8,-734.5 57.03,-68.04 117.74,-131.01 181.81,-188.63 64.29,-57.85 132.12,-110.43 203.04,-157.52l31.68 -21.04 75.97 50.48 0.24 0 51.7 34.32 108.34 -68.64 4.95 -137.82 -51.52 -34.2 -0.21 0 -51.71 -34.32 -54.16 34.32 -0.22 0 -53.95 34.17 -1.86 52.61 -32.34 20c-81.22,50.33 -159.17,108.07 -233.36,172.74 -73.42,64.17 -142.87,135.15 -207.85,212.65 -142.2,169.7 -261.89,369.83 -354.73,597.1 -91.07,222.83 -156.47,471.78 -192.14,743.6zm15310.42 77.83l-50.92 -38.43 92.09 -2283.47c4.14,-102.99 -4.5,-199.16 -27.08,-284.41 -21.26,-80.25 -55.07,-151.57 -102.46,-210.69 -44.5,-55.55 -100.71,-99.75 -169.55,-129.84 -66.57,-29.04 -145.21,-44.82 -236.58,-44.82l-232.7 0 -36.69 908.89 -83.89 59.61 -5.08 125.71 83.05 62.64 88.13 -62.64 5.07 -125.71 -54.74 -41.29 35.7 -885.05 199.5 0c84.13,0 156.97,14.05 219.13,39.9 67.53,28.14 122.15,70.17 164.66,123.26 44.62,55.67 76.39,124.19 96.18,202.13 20.18,79.57 27.87,168.22 24.05,262.31l-91.13 2259.54 -43.87 31.17 -0.18 0 -43.84 31.2 -5.08 125.69 83.05 62.67 88.13 -62.67 5.05 -125.69zm-11729.81 -416.49c0.99,-1042.96 -839.2,-1689.76 -1744.71,-1689.76 -1245.08,0 -2135.23,913.61 -2136.58,2368.87 -1.26,1334 1057.05,2191.02 2140.43,2191.02 1196.54,0 1576.92,-428.5 1577.46,-986.37l0.3 -339.6 -40.41 0c-77.7,72.22 -164.57,132.69 -257.81,183.14 -5.61,103.5 -24.5,201.35 -59.36,291.22 -45.7,117.79 -119.14,223.33 -226.49,311.91l-0.27 0c-75.97,62.72 -169.08,116.65 -281.64,160 -114.52,44.08 -249.01,77.3 -405.69,97.65l-54.61 7.08 1.38 57.86 -104.28 68.43 -107.46 -68.43 -3.19 -137.46 51.89 -34.02 0.24 0 52.13 -34.26 53.72 34.26 0.24 0 97.22 61.85 19.85 -2.61c146.7,-19.79 272.94,-51.05 380.75,-92.25 109.72,-41.97 200.52,-94.34 274.51,-155.44 101.24,-83.57 170.76,-184.63 214.29,-298.43 29.37,-76.84 46.63,-158.96 53.69,-245.01 -316.3,157.73 -697.21,206.84 -1033.51,206.84 -638.72,0 -1139.62,-347.64 -1220,-897.39l41.95 0c-28.17,-72.36 -49.1,-149.84 -61.8,-232.01l-4.07 -26.39 687.75 0 -1.25 -54.45 51.94 -34.05 0.21 0 52.13 -34.23 53.72 34.23 0.24 0 53.47 34.05 3.24 137.44 -104.25 68.49 -107.46 -68.49 -0.87 -36.9 -643.56 0 23.39 87.28c11.62,43.3 25.77,85.04 42.27,125.03l624.43 0c1439.13,0 2045.72,-258.71 2046.45,-1059.12zm-1018.53 -129.39c-0.15,164.22 -67.29,272.97 -286.51,338.67l0.06 1.59 -104.22 68.68 -54.2 -34.59c-189.61,31.92 -453.61,46.09 -816.78,46.09l-485.07 0 8.19 -145.5c4.05,-81.55 17.09,-161.15 38.31,-237.33l-28.22 -18.04 -3.27 -137.82 51.85 -34.17 0.21 0 74.16 -48.86 7.66 -14.17c70.2,-129.57 166.41,-237.12 282.88,-310.71 77.02,-48.74 163.22,-82.7 257.06,-98.67l0.54 -0.11c73.41,-19.49 151.38,-29.91 233.33,-29.91 501.23,0 824.41,218.33 824.01,654.88zm5003.98 945.95l1.56 -1633.13c0.45,-509.36 -266.1,-776.15 -896.73,-776.15l-194.03 0 -2.34 2449.7c-0.36,434.66 -108.42,720.21 -286.78,882.5 20.99,-6.91 41.5,-14.74 61.47,-23.69 86.98,-38.89 162.95,-97.44 224.8,-177.45l13.15 -17 0 -0.93c54.26,-75.19 97.41,-167.9 127.55,-279.64 30.27,-112.6 47.5,-244.23 49.45,-396.34l20.96 -1629.95 -87.01 -48.04 1.65 -127.76 58.15 -31.65 0.27 0 58.37 -31.8 57.59 31.8 0.27 0 57.32 31.65 -1.62 127.76 -99.96 54.44 -20.9 1623.55c-2.05,160.69 -20.88,299.54 -54.21,418.06 -32.24,114.88 -77.98,210.33 -134.88,287.65l-10.21 13.12c-66.57,85.97 -146.7,148.69 -237.48,190.16 -53.36,24.38 -110.76,41.65 -171.57,52.13 -111.13,69.8 -242.37,102.48 -387.34,102.48 -493.16,0 -880.98,-323.42 -880.19,-1123.82l1.5 -1600.77c0.21,-197.69 -41.11,-358.85 -128.06,-482.04 -13.84,-4.44 -27.99,-8.62 -42.58,-12.55 -103.93,-27.9 -226.79,-42.04 -369.5,-42.04l-170.19 0 -28.65 2226.94c-3.42,266.57 37.59,505.97 115.39,716.19 82.27,222.22 205.62,411.48 361.15,565.57 144.97,143.56 318.25,257 512.47,338.51 195.53,82.04 412.02,131.67 642.11,147.16l72.3 4.86 0.85 -64.31 58.1 -31.65 0.27 0 58.4 -31.86 57.59 31.86 0.27 0 57.32 31.65 -1.62 127.76 -116.83 63.6 -157.25 -86.9 -15.7 -0.93c-240.49,-14.39 -466.61,-65.01 -670.37,-150.02 -200.75,-83.81 -380.16,-201.02 -530.45,-349.95 -158.8,-157.25 -284.94,-349.74 -369.36,-575.19 -80.7,-215.62 -123.26,-461.69 -119.71,-736.36l14.65 -1139.83 14.53 -1129.93 215.25 0c139.02,0 260.21,13.15 364.43,39.16 -144.19,-155.9 -380.7,-235.86 -721.5,-235.86l-202.14 0 -2.31 2482.03c-1.23,1269.34 847.04,1980.81 1922.34,1980.81 1269.34,0 1908.69,-695.32 1909.95,-2053.56zm2887.9 -1350.16l0.33 -388.09c0.3,-331.46 -233.79,-711.47 -904.82,-711.47 -1148.05,0 -1609.71,832.75 -1610.48,1705.92l-1.92 2005.04c-0.3,335.69 168.45,555.78 453.42,647.19l-1.17 -79.12 53.2 -33.33 0.24 0 53.48 -33.51 54.47 33.51 0.24 0 54.23 33.36 1.38 90.08 50.59 11.25c33.12,7.36 67.51,12.82 103.05,16.42 37.27,3.84 74.05,5.67 110.2,5.67l157.52 0 2.34 -2502.51c0.61,-662.98 267.68,-929.79 752.76,-929.79 234.21,0 401.9,44.31 544.41,96.26l-2.47 -166.73c-1.35,-88.9 -20.02,-182.08 -60.35,-269.64 -35.97,-78.28 -88.97,-151.4 -161.69,-212.05 -66.34,-55.4 -149.36,-100.97 -251.21,-131.67 -90.95,-27.35 -196.79,-42.93 -319.12,-42.93 -330.58,0 -595.48,86.6 -801.82,232.53 -232.37,164.33 -388.87,402.95 -480.39,677.27l-17.8 53.39 53.23 32.7 2.02 134.54 -106.96 67.03 -108.96 -67.03 -2.02 -134.54 53.28 -33.36 0.21 0 77.91 -48.86 7.54 -22.97c92.54,-282.55 251.68,-528.08 488.47,-696.07 211.89,-150.4 487.3,-239.79 834.61,-239.79 130.8,0 243.31,17.08 339.48,47.16 103.2,32.29 188.17,79.75 256.9,137.1 78.79,65.73 135.72,143.77 174.04,226.67 43.14,93.34 63.14,193.78 64.61,290.5l2.76 182.56c14.84,5.7 29.4,11.49 43.81,17.29l40.45 0zm3669.1 1899.92l0.9 -1002.52c1.41,-1503.78 -871.3,-1956.55 -1841.48,-1956.55 -1148.05,0 -1585.21,582.09 -1585.66,1067.19l-0.3 347.64 40.41 0c52.43,-65.46 133.74,-141.09 246.34,-213.43 11.47,-103.95 42.1,-209.92 94.46,-311.13 61.55,-118.85 152.92,-231.21 278.28,-326.36l15.74 -11.52c115.82,-84.83 260.15,-155.48 436.02,-203.82 161.75,-44.47 349.89,-69.84 566.92,-69.84 170.11,0 336.84,16.51 494.9,53.75 145.53,34.26 283.71,85.94 410.3,158.24l30.57 17.47 65.12 -40.83 54.02 33.27 0.27 0 53.68 32.97 1.95 133.13 -105.81 66.33 -107.79 -66.33 -1.83 -123.32 -33.66 -18.88c-123.64,-69.33 -256.93,-118.64 -396.29,-150.98 -149.46,-34.71 -305.9,-50.17 -464.8,-50.17 -210.01,0 -392.33,24.08 -549.1,66.24 -173.97,46.78 -316.48,116.02 -430.67,199.58l-51.01 37.32 1.14 1.83c-100.68,83.63 -175.99,179.17 -228.71,279.33 -45.55,86.57 -74.22,176.62 -87.89,265.53 236.43,-139.47 593.84,-259.64 1090.8,-259.64 646.83,0 937.7,185.95 937.09,800.38l-0.03 56.6 -379.98 0c-1600.82,0 -2167.3,590.23 -2168.05,1366.35 -0.72,800.44 710.22,1382.53 1745.11,1382.53l218.25 0c970.18,0 1649.89,-638.72 1650.79,-1560.37zm-1059.12 8.08c-0.42,444.66 -227.03,671.05 -695.95,671.05 -477.04,0 -751.71,-202.13 -751.39,-541.7 0.33,-355.75 234.96,-549.79 1059.63,-549.79l388.09 0 -0.3 320.72 131.09 0 6.4 429.19c3.39,225.56 -49.99,392.69 -153.65,502.49 -106.68,112.94 -269.9,168.96 -482.52,168.96 -68.58,0 -132.71,-4.95 -192.16,-14.62 -59.61,-9.73 -114.43,-24.05 -164.13,-42.82l-27.74 -10.46 -79.27 49.67 -110.34 -67.89 -2.1 -136.29 53.99 -33.81 0.24 0 54.16 -33.96 55.19 33.96 0.21 0 54.95 33.81 1.81 119.2 45.82 14.65c43.84,14.02 92.39,24.71 145.34,32.01 52.13,7.12 106.65,10.8 163.37,10.8 99.96,0 187.13,-12.58 261.68,-37.56 77.92,-26.18 141.81,-65.94 191.75,-119.03 49.88,-53.02 86.39,-119.98 109.78,-200.69 22.34,-77.14 32.64,-166.68 31.17,-268.44l-5.74 -383.49 -89.32 0 -0.03 54.02zm2364.45 -3613.94c0.42,-412.32 -233.78,-727.63 -775.46,-727.63l-307.23 0 -4.2 4503.26c-0.61,660.58 271.5,1094.04 785.81,1269.69 -189.52,-112.3 -335.81,-275.76 -434.15,-487.78l-32.4 -69.84 -45.7 28.64 -116.47 -71.7 -2.16 -143.68 56.84 -35.61 0.24 0 57.11 -35.8 58.19 35.8 0.27 0 57.89 35.61 2.16 143.86 -28.89 18.08 26.87 59.84c98.88,219.74 249.13,384.94 447.46,495.4 64.1,35.73 133.1,65.58 206.88,89.67 106.09,17.29 219.88,26.09 341.28,26.09 384.07,0 621.45,-120.58 699.65,-412.27 -684.9,-85.15 -1018.05,-532.55 -1017.36,-1242.76 1.06,-1159.97 22.25,-2320.73 23.36,-3478.88z"/>
    </g>
   </g>
  </g>
 </g>
</svg>
